# xmcd CD database file
#
# Track frame offsets:
#	150
#	15630
#	28155
#	44300
#
# Disc length: 886 seconds
#
# Revision: 0
# Processed by: cddbd v1.5PL3 Copyright (c) Steve Scherf et al.
# Submitted via: CDex 1.50
#
DISCID=29037404
DTITLE=HOLIDAYS and GOING STEADY - HOLIDAYS and GOING STADY
DYEAR=1900
DGENRE=ロック (日本)
TTITLE0=YOUR WORLD
TTITLE1=FRIENDS
TTITLE2=HOLIDAY
TTITLE3=駆け抜けて性春
EXTD=
EXTT0=
EXTT1=
EXTT2=
EXTT3=
PLAYORDER=
